<?xml version="1.0" standalone="no"?>
<!DOCTYPE svg PUBLIC "-//W3C//DTD SVG 20010904//EN"
 "http://www.w3.org/TR/2001/REC-SVG-20010904/DTD/svg10.dtd">
<svg version="1.0" xmlns="http://www.w3.org/2000/svg"
 width="300.000000pt" height="116.000000pt" viewBox="0 0 300.000000 116.000000"
 preserveAspectRatio="xMidYMid meet">
<metadata>
Created by potrace 1.10, written by Peter Selinger 2001-2011
</metadata>
<g transform="translate(0.000000,116.000000) scale(0.100000,-0.100000)"
fill="#000000" stroke="none">
<path d="M682 1139 c-81 -41 -119 -157 -78 -237 73 -142 279 -126 324 25 17
56 15 71 -12 129 -42 90 -147 128 -234 83z m143 -12 c30 -15 65 -49 81 -79 35
-68 -1 -179 -70 -212 -165 -78 -313 122 -188 256 51 54 113 67 177 35z"/>
<path d="M735 1091 c-53 -17 -85 -59 -85 -114 0 -31 7 -46 34 -73 28 -28 41
-34 77 -34 137 1 149 193 14 223 -11 3 -29 2 -40 -2z m71 -54 c38 -33 38 -82
-2 -114 -16 -12 -37 -23 -47 -23 -29 0 -67 45 -67 80 0 36 38 80 69 80 11 0
32 -11 47 -23z"/>
<path d="M345 990 c-11 -4 -33 -22 -50 -40 -26 -27 -30 -39 -30 -88 0 -72 27
-113 90 -138 59 -22 110 -8 154 41 26 30 31 44 31 87 0 106 -101 178 -195 138z
m127 -28 c69 -40 76 -143 14 -199 -65 -60 -157 -39 -197 44 -24 49 -20 87 13
129 42 53 107 63 170 26z"/>
<path d="M371 939 c-34 -14 -50 -39 -51 -79 0 -40 5 -50 40 -73 36 -25 68 -21
101 12 48 48 36 111 -26 137 -19 8 -36 14 -37 13 -2 0 -14 -5 -27 -10z m77
-81 c2 -17 -4 -28 -21 -37 -34 -18 -67 0 -67 38 0 58 81 57 88 -1z"/>
<path d="M479 590 c-50 -102 -91 -188 -92 -193 -1 -4 54 -8 122 -9 l125 -1 11
34 c7 19 47 103 89 186 42 84 76 156 76 160 0 5 -54 8 -121 8 l-120 0 -90
-185z m266 141 c3 -5 -28 -76 -68 -158 l-72 -148 -73 -3 c-55 -2 -74 0 -78 11
-5 15 107 259 134 290 12 13 31 17 83 17 37 0 70 -4 74 -9z"/>
<path d="M2413 750 c-67 -9 -108 -27 -137 -59 -11 -12 -29 -21 -41 -21 -13 0
-30 -11 -39 -25 -18 -27 -14 -45 10 -45 8 0 14 -2 14 -5 0 -3 -20 -46 -45 -95
-25 -49 -45 -96 -45 -105 0 -11 12 -15 53 -15 122 0 122 0 183 121 48 97 57
109 80 109 15 0 33 8 40 18 19 24 17 32 -6 32 -11 0 -20 7 -20 15 0 10 10 15
34 15 46 0 82 14 90 36 4 9 5 18 4 19 -9 9 -123 12 -175 5z m31 -62 c-3 -18
-19 -44 -35 -58 -15 -14 -47 -62 -70 -105 -22 -44 -46 -86 -51 -92 -11 -14
-94 -18 -101 -5 -3 4 9 34 25 67 16 33 30 77 31 97 2 31 9 42 46 68 47 34 103
58 138 59 20 1 22 -3 17 -31z"/>
<path d="M2789 733 c-81 -4 -87 -5 -98 -29 -6 -14 -26 -31 -45 -39 -42 -18
-65 -65 -31 -65 8 0 15 -2 15 -5 0 -3 -22 -50 -50 -105 -27 -55 -50 -101 -50
-103 0 -1 42 -2 93 -1 l92 1 58 112 c48 92 62 111 80 111 25 0 47 17 47 37 0
7 -7 13 -16 13 -12 0 -15 6 -10 20 3 11 9 29 12 40 4 11 2 19 -2 18 -5 -1 -48
-4 -95 -5z m53 -49 c16 -10 8 -30 -24 -60 -18 -17 -50 -64 -72 -105 -52 -99
-52 -99 -102 -99 -53 0 -56 13 -19 86 14 27 26 60 26 74 3 46 9 58 48 83 49
32 110 41 143 21z"/>
<path d="M195 713 c-127 -34 -123 -216 6 -255 32 -9 44 -8 82 11 72 35 97 112
57 178 -32 53 -92 80 -145 66z m111 -47 c51 -51 50 -115 -3 -165 -32 -30 -40
-33 -80 -28 -151 17 -141 227 11 227 30 0 45 -7 72 -34z"/>
<path d="M171 634 c-24 -30 -26 -46 -9 -77 40 -75 142 -55 142 28 0 70 -90
103 -133 49z m89 -34 c0 -37 -14 -53 -38 -46 -43 14 -32 71 14 71 19 0 24 -5
24 -25z"/>
<path d="M1362 666 c-23 -8 -54 -21 -68 -31 -24 -15 -26 -15 -43 7 -18 22 -24
22 -215 25 l-195 2 -68 -137 c-37 -75 -69 -141 -71 -145 -2 -4 40 -6 95 -5
l98 3 55 110 c43 86 60 111 78 113 12 2 22 -2 22 -7 0 -6 -22 -56 -50 -111
-29 -58 -46 -102 -40 -105 6 -4 41 -5 78 -4 37 1 118 -4 180 -11 159 -18 273
-10 340 24 l52 26 60 -20 c93 -31 218 -25 314 17 34 15 44 29 82 107 40 82 43
91 28 107 -45 49 -237 51 -347 2 -30 -13 -45 -29 -68 -74 -16 -32 -33 -60 -38
-63 -5 -3 -23 1 -40 10 -17 9 -68 22 -114 30 -101 17 -154 33 -169 52 -18 21
19 48 85 62 46 11 64 9 154 -12 l103 -25 16 24 c8 14 13 27 10 30 -3 3 -67 7
-143 9 -100 3 -150 0 -181 -10z m-390 -41 c3 -3 -18 -49 -46 -103 l-51 -97
-52 -3 c-34 -2 -53 1 -53 8 0 18 69 162 87 182 11 12 31 18 63 18 26 0 49 -2
52 -5z m246 -3 c9 -6 6 -16 -13 -38 -47 -55 -64 -105 -50 -150 6 -20 4 -21
-66 -17 -40 2 -74 5 -76 7 -3 2 10 32 27 67 20 39 32 77 32 101 l-1 38 67 0
c37 0 73 -4 80 -8z m827 -6 c19 -14 19 -15 -5 -67 -33 -70 -69 -106 -114 -114
-20 -4 -39 -5 -41 -3 -3 2 11 37 30 76 25 51 33 80 29 97 -6 24 -4 25 38 25
24 0 53 -6 63 -14z m-231 -66 c-25 -49 -35 -79 -32 -99 6 -39 -8 -44 -74 -25
-68 20 -78 30 -51 49 11 8 33 35 48 60 30 52 76 85 117 85 l28 0 -36 -70z
m106 51 c0 -13 -55 -128 -70 -146 -12 -14 -50 -21 -50 -10 0 3 18 41 40 85 30
60 45 80 60 80 11 0 20 -4 20 -9z m-590 -59 c19 -5 69 -15 110 -22 147 -24
180 -59 98 -101 -72 -37 -155 -37 -271 1 -111 35 -108 29 -55 117 l32 52 25
-18 c14 -10 42 -23 61 -29z"/>
<path d="M220 373 c-56 -51 -50 -135 12 -173 71 -44 158 7 158 93 -1 94 -102
141 -170 80z m105 3 c92 -39 63 -176 -38 -176 -30 0 -45 7 -69 30 -26 27 -30
36 -25 67 7 38 30 71 62 84 28 11 31 11 70 -5z"/>
<path d="M242 344 c-47 -33 -14 -124 45 -124 27 0 73 41 73 65 0 20 -19 57
-34 67 -19 13 -60 9 -84 -8z m76 -51 c4 -30 -36 -43 -55 -18 -9 14 -10 22 -1
32 17 21 52 12 56 -14z"/>
<path d="M420 201 c0 -76 -3 -154 -6 -172 l-7 -34 39 41 c21 23 58 51 81 63
154 78 526 132 1113 161 409 20 1056 62 1085 70 17 4 -495 8 -1137 9 l-1168 1
0 -139z m968 99 c25 0 42 -3 38 -7 -8 -8 -8 -8 -191 -23 -330 -25 -601 -77
-718 -137 -27 -13 -52 -21 -55 -18 -10 10 -10 147 0 167 8 16 39 18 386 21
207 2 404 2 436 0 32 -2 79 -3 104 -3z"/>
</g>
</svg>
