<svg xmlns="http://www.w3.org/2000/svg" x="0px" y="0px" width="50" height="50" viewBox="0 0 24 24">
	<path d="M23.5 18h-5.298c-.172 0-.332-.088-.423-.233l-5.535-8.775c-.073-.115-.095-.255-.062-.388.033-.132.119-.245.237-.313l3.888-2.225c.234-.133.529-.059.671.167l6.945 11c.097.154.103.349.015.508C23.85 17.901 23.682 18 23.5 18zM18.478 17h4.115l-6.205-9.828-3.02 1.728L18.478 17zM15.015 18H9.721c-.171 0-.331-.088-.423-.233L6.23 12.909c-.073-.115-.095-.255-.062-.388.033-.132.119-.246.237-.313l3.892-2.229c.233-.132.528-.06.671.167l4.47 7.086c.097.154.103.349.015.508C15.365 17.901 15.197 18 15.015 18zM9.996 17h4.112l-3.731-5.915-3.022 1.731L9.996 17zM6.392 18H1.095c-.172 0-.332-.088-.423-.233l-.595-.944c-.073-.116-.095-.255-.062-.388.033-.132.119-.246.237-.313l3.892-2.224c.232-.134.528-.059.671.167l2 3.168c.097.154.103.349.015.508C6.742 17.901 6.574 18 6.392 18zM1.371 17h4.115l-1.261-1.997-3.023 1.728L1.371 17z"></path>
</svg>